<?xml version="1.0" encoding="UTF-8"?>
<!DOCTYPE svg PUBLIC "-//W3C//DTD SVG 1.1//EN" "http://www.w3.org/Graphics/SVG/1.1/DTD/svg11.dtd">
<!-- Creator: CorelDRAW X7 -->
<svg xmlns="http://www.w3.org/2000/svg" xml:space="preserve" width="10.541cm" height="2.61618cm" version="1.1" style="shape-rendering:geometricPrecision; text-rendering:geometricPrecision; image-rendering:optimizeQuality; fill-rule:evenodd; clip-rule:evenodd"
viewBox="0 0 10541 2616"
 xmlns:xlink="http://www.w3.org/1999/xlink">
 <defs>
  <style type="text/css">
   <![CDATA[
    .fil1 {fill:#FEFEFE}
    .fil0 {fill:#ED3237}
    .fil2 {fill:#3E4095;fill-rule:nonzero}
   ]]>
  </style>
 </defs>
 <g id="Capa_x0020_1">
  <metadata id="CorelCorpID_0Corel-Layer"/>
  <g id="_666647312">
   <path class="fil0" d="M1339 33c-705,0 -1276,571 -1276,1275 0,704 571,1275 1276,1275 409,0 773,-192 1006,-492l-807 -502 14 -551 695 -625c-232,-235 -553,-380 -908,-380z"/>
   <circle class="fil0" cx="1348" cy="1308" r="774"/>
   <path class="fil1" d="M1341 539c-425,0 -770,344 -770,769 0,425 345,769 770,769 227,0 432,-99 573,-256l-374 -258c-55,43 -124,69 -199,69 -179,0 -324,-145 -324,-324 0,-179 145,-324 324,-324 81,0 156,30 213,80l318 -312c-138,-132 -325,-213 -531,-213z"/>
   <path class="fil2" d="M3249 1371l189 57c-13,52 -33,96 -60,132 -27,35 -61,62 -101,80 -41,18 -92,27 -154,27 -76,0 -137,-11 -185,-33 -48,-22 -90,-61 -124,-116 -35,-55 -53,-126 -53,-212 0,-115 31,-203 92,-265 61,-61 148,-92 260,-92 87,0 156,18 206,53 50,35 88,90 112,163l-189 42c-7,-21 -14,-36 -21,-46 -12,-16 -27,-29 -44,-38 -18,-9 -37,-13 -59,-13 -49,0 -86,20 -112,58 -19,29 -29,75 -29,137 0,77 11,129 35,158 23,28 56,43 99,43 41,0 72,-12 93,-35 21,-23 36,-56 45,-100z"/>
   <path id="1" class="fil2" d="M3514 1308c0,-113 32,-201 95,-264 63,-64 151,-95 264,-95 115,0 204,31 267,93 63,62 94,149 94,261 0,81 -14,147 -41,199 -27,52 -67,92 -119,121 -51,29 -116,44 -193,44 -78,0 -143,-13 -194,-38 -52,-25 -93,-64 -125,-118 -32,-54 -48,-122 -48,-203zm214 1c0,70 13,120 40,151 26,30 61,46 106,46 46,0 82,-15 107,-45 26,-30 38,-84 38,-162 0,-65 -13,-113 -39,-143 -27,-30 -62,-45 -108,-45 -43,0 -78,15 -104,46 -27,30 -40,81 -40,152z"/>
   <path id="2" class="fil2" d="M4348 961l357 0c78,0 136,18 175,55 39,37 58,90 58,158 0,70 -21,125 -63,165 -43,39 -107,59 -194,59l-117 0 0 257 -216 0 0 -694zm216 296l52 0c42,0 71,-7 88,-21 17,-15 25,-33 25,-56 0,-21 -7,-40 -22,-55 -14,-15 -42,-23 -82,-23l-61 0 0 155z"/>
   <polygon id="3" class="fil2" points="4980,961 5218,961 5359,1194 5498,961 5735,961 5466,1364 5466,1655 5250,1655 5250,1364 "/>
   <path id="4" class="fil2" d="M6590 1371l189 57c-13,52 -33,96 -60,132 -27,35 -61,62 -102,80 -40,18 -91,27 -153,27 -76,0 -138,-11 -186,-33 -47,-22 -89,-61 -123,-116 -35,-55 -53,-126 -53,-212 0,-115 31,-203 92,-265 61,-61 148,-92 260,-92 87,0 156,18 206,53 50,35 87,90 112,163l-189 42c-7,-21 -14,-36 -21,-46 -12,-16 -27,-29 -44,-38 -18,-9 -37,-13 -59,-13 -49,0 -86,20 -112,58 -19,29 -29,75 -29,137 0,77 11,129 35,158 23,28 56,43 98,43 42,0 73,-12 94,-35 21,-23 36,-56 45,-100z"/>
   <polygon id="5" class="fil2" points="6882,961 7456,961 7456,1109 7097,1109 7097,1220 7430,1220 7430,1361 7097,1361 7097,1498 7467,1498 7467,1655 6882,1655 "/>
   <polygon id="6" class="fil2" points="7585,961 7785,961 8045,1344 8045,961 8248,961 8248,1655 8045,1655 7786,1274 7786,1655 7585,1655 "/>
   <polygon id="7" class="fil2" points="8342,961 8995,961 8995,1132 8776,1132 8776,1655 8561,1655 8561,1132 8342,1132 "/>
   <polygon id="8" class="fil2" points="9091,961 9665,961 9665,1109 9306,1109 9306,1220 9639,1220 9639,1361 9306,1361 9306,1498 9676,1498 9676,1655 9091,1655 "/>
   <path id="9" class="fil2" d="M9795 1655l0 -694 357 0c66,0 117,5 152,17 35,11 63,32 85,63 21,31 32,68 32,113 0,38 -8,72 -25,100 -16,28 -39,50 -68,68 -18,11 -43,20 -75,27 26,9 44,17 56,26 8,5 19,18 34,36 15,19 25,33 30,43l104 201 -242 0 -115 -212c-14,-27 -27,-45 -39,-53 -15,-11 -33,-16 -52,-16l-19 0 0 281 -215 0zm215 -412l91 0c9,0 28,-3 56,-10 15,-2 26,-10 35,-22 9,-11 14,-25 14,-40 0,-22 -7,-40 -22,-52 -14,-12 -40,-18 -80,-18l-94 0 0 142z"/>
   <path class="fil2" d="M8753 2014l118 -7c2,19 7,33 15,43 13,16 31,25 55,25 18,0 31,-4 41,-13 10,-8 14,-18 14,-29 0,-10 -4,-19 -13,-28 -9,-8 -30,-16 -64,-23 -54,-12 -93,-29 -116,-49 -23,-20 -35,-46 -35,-77 0,-21 6,-40 18,-59 12,-18 30,-33 54,-43 24,-11 57,-16 99,-16 51,0 90,10 117,29 27,19 43,49 48,91l-117 7c-3,-18 -9,-31 -19,-40 -10,-8 -24,-12 -41,-12 -15,0 -26,3 -33,9 -7,6 -11,14 -11,22 0,7 3,13 9,18 6,5 19,10 41,14 55,12 93,24 117,36 23,12 41,27 51,45 11,17 16,37 16,59 0,26 -7,50 -21,71 -14,22 -34,39 -60,50 -26,11 -58,17 -97,17 -68,0 -115,-13 -142,-40 -26,-26 -41,-59 -44,-100z"/>
   <polygon id="1" class="fil2" points="9173,2035 9292,2035 9292,2147 9173,2147 "/>
   <path id="2" class="fil2" d="M9368 2147l0 -402 207 0c39,0 68,3 88,10 21,6 37,19 50,36 12,18 18,40 18,66 0,22 -5,41 -14,58 -10,16 -23,29 -39,39 -11,6 -26,12 -44,16 15,5 25,10 32,15 5,3 11,10 20,21 9,11 14,19 17,25l61 116 -141 0 -66 -123c-8,-15 -16,-26 -23,-31 -9,-6 -19,-9 -30,-9l-11 0 0 163 -125 0zm125 -239l53 0c5,0 16,-1 32,-5 9,-2 15,-6 21,-13 5,-7 7,-14 7,-23 0,-13 -4,-23 -12,-30 -8,-7 -24,-11 -46,-11l-55 0 0 82z"/>
   <polygon id="3" class="fil2" points="9797,2035 9916,2035 9916,2147 9797,2147 "/>
   <polygon id="4" class="fil2" points="9991,1745 10115,1745 10115,2048 10309,2048 10309,2147 9991,2147 "/>
   <polygon id="5" class="fil2" points="10358,2035 10477,2035 10477,2147 10358,2147 "/>
  </g>
 </g>
</svg>
